{"title":"American Horror Story S05 Hotel 1080p BluRay HEVC DD5.1 x265","uid":15891859,"size":10442009372,"categoryP":"video","categoryS":"hd___tv_shows","magnet":"?xt=urn:btih:db31492086287739674e6267837c056b2430fb62&amp;dn=American+Horror+Story+S05+Hotel+1080p+BluRay+HEVC+DD5.1+x265&amp;tr=udp%3A%2F%2Ftracker.leechers-paradise.org%3A6969&amp;tr=udp%3A%2F%2Fzer0day.ch%3A1337&amp;tr=udp%3A%2F%2Fopen.demonii.com%3A1337&amp;tr=udp%3A%2F%2Ftracker.coppersurfer.tk%3A6969&amp;tr=udp%3A%2F%2Fexodus.desync.com%3A6969","seeders":5,"leechers":11,"uploader":"nayhtut","files":24,"time":1474762918,"description":"[Screenshots Gallery Link]\r\n\r\n[http://postimg.org/gallery/zo2by4u2]\r\n\r\n\r\nSource:American Horror Story S05 1080p BluRay x264-ROVERS(Size: 48.06 GB)\r\n \r\n\r\nContains:  American Horror Story Season Five Episode 01 to 12\r\n\r\nFormat                                   : Matroska\r\nFormat version                           : Version 4 / Version 2\r\nFile size                                : 9.72 GiB\r\nDuration                                 : Various\r\nOverall bit rate                         : 2 222 Kbps\r\nWriting application                      : Lavf57.25.100\r\nWriting library                          : Lavf57.25.100\r\n\r\nVideo\r\n\r\nID                                       : 1\r\nFormat                                   : V_MPEGH/ISO/HEVC\r\nCodec ID                                 : V_MPEGH/ISO/HEVC\r\nDuration                                 : 1h 2mn\r\nBit rate                                 : 1 794 Kbps\r\nWidth                                    : 1 920 pixels\r\nHeight                                   : 1 080 pixels\r\nDisplay aspect ratio                     : 16:9\r\nFrame rate                               : 25.000 fps\r\nBits/(Pixel*Frame)                       : 0.035\r\nStream size                              : 802 MiB (81%)\r\nWriting library                          : Lavc57.48.101 libx265\r\nLanguage                                 : English\r\nDefault                                  : Yes\r\nForced                                   : No\r\nDURATION                                 : 01:02:30.771000000\r\n\r\nAudio\r\n\r\nID                                       : 2\r\nFormat                                   : AC-3\r\nFormat/Info                              : Audio Coding 3\r\nMode extension                           : CM (complete main)\r\nFormat settings, Endianness              : Big\r\nCodec ID                                 : A_AC3\r\nDuration                                 : 1h 2mn\r\nBit rate mode                            : Constant\r\nBit rate                                 : 384 Kbps\r\nChannel(s)                               : 6 channels\r\nChannel positions                        : Front: L C R, Side: L R, LFE\r\nSampling rate                            : 48.0 KHz\r\nBit depth                                : 16 bits\r\nCompression mode                         : Lossy\r\nStream size                              : 172 MiB (17%)\r\nWriting library                          : Lavc57.24.102 ac3\r\nLanguage                                 : English\r\nDefault                                  : Yes\r\nForced                                   : No\r\nDURATION                                 : 01:02:30.879000000\r\n\r\nMenu\r\n\r\n00:00:00.000                             : :00:00:00.000\r\n00:08:24.504                             : :00:08:24.504\r\n00:26:20.829                             : :00:26:20.829\r\n00:39:26.322                             : :00:39:26.322\r\n00:43:14.592                             : :00:43:14.592\r\n00:53:48.058                             : :00:53:48.058\r\n01:01:51.708                             : :01:01:51.708\r\n00:39:27.532                             : :00:39:27.532\r\n00:44:51.188                             : :00:44:51.188\r\n00:48:56.433                             : :00:48:56.433\r\n00:57:03.420                             : :00:57:03.420","torrent":{"xt":"urn:btih:db31492086287739674e6267837c056b2430fb62","amp;dn":"American+Horror+Story+S05+Hotel+1080p+BluRay+HEVC+DD5.1+x265","amp;tr":["udp%3A%2F%2Ftracker.leechers-paradise.org%3A6969","udp%3A%2F%2Fzer0day.ch%3A1337","udp%3A%2F%2Fopen.demonii.com%3A1337","udp%3A%2F%2Ftracker.coppersurfer.tk%3A6969","udp%3A%2F%2Fexodus.desync.com%3A6969"],"infoHash":"db31492086287739674e6267837c056b2430fb62","infoHashBuffer":{"type":"Buffer","data":[219,49,73,32,134,40,119,57,103,78,98,103,131,124,5,107,36,48,251,98]},"announce":[],"urlList":[]}}